<mxfile host="app.diagrams.net" modified="2023-12-19T09:17:08.887Z" agent="Mozilla/5.0 (Windows NT 10.0; Win64; x64) AppleWebKit/537.36 (KHTML, like Gecko) Chrome/120.0.0.0 Safari/537.36" version="22.1.11" etag="jZQkA3324KUmu2LYeV0f" type="github">
  <diagram name="Страница — 1" id="v7oM--o3gV5WJEw0xlFY">
    <mxGraphModel>
      <root>
        <mxCell id="0" />
        <mxCell id="1" parent="0" />
      </root>
    </mxGraphModel>
  </diagram>
</mxfile>
